<svg data-icon-name="eventarcSectionIcon" viewBox="0 0 24 24" width="24" height="24"><circle cx="12" cy="12.06" r="2.82" fill="currentColor" opacity=".8" transform="rotate(-43.97 11.998 12.06)"/><path fill="currentColor" fill-rule="evenodd" d="M10 14.05a2.6 2.6 0 00.54.42l-3 3a2.37 2.37 0 00-.89-.94l2.95-3a3 3 0 00.4.52m6.46-7.32-3 2.95a2.6 2.6 0 01.9.93l3-3a2.3 2.3 0 01-.89-.88zM21.75 12a9.6 9.6 0 01-1.41 5 2.4 2.4 0 00-1.07-.75 8.4 8.4 0 00.81-6.76 4.1 4.1 0 001.15-.67 9.6 9.6 0 01.52 3.18M17 20.37a9.7 9.7 0 01-8.12.86 4.1 4.1 0 00.67-1.15 8.43 8.43 0 006.72-.78 2.3 2.3 0 00.73 1.07M15.14 2.76a4.3 4.3 0 00-.67 1.15h-.05a8.46 8.46 0 00-6.72.83A2.4 2.4 0 007 3.66a9.73 9.73 0 015-1.41 9.9 9.9 0 013.14.51M3.55 12a8.3 8.3 0 00.37 2.46 4.4 4.4 0 00-1.15.68A9.72 9.72 0 013.62 7a2.34 2.34 0 001.07.73A8.35 8.35 0 003.55 12" opacity=".6"/><path fill="currentColor" fill-rule="evenodd" d="M19.52 5.51a1 1 0 10-1 1 1 1 0 001-1m1.36 0a2.38 2.38 0 11-2.38-2.38 2.38 2.38 0 012.38 2.38M6.46 18.55a1 1 0 10-1 1 1 1 0 001-1m1.36 0a2.38 2.38 0 11-2.37-2.39 2.38 2.38 0 012.37 2.39M6.46 5.51a1 1 0 10-1 1 1 1 0 001-1m1.36 0a2.38 2.38 0 11-2.37-2.38 2.37 2.37 0 012.37 2.38m11.7 13.04a1 1 0 10-1 1 1 1 0 001-1m1.36 0a2.38 2.38 0 11-2.38-2.39 2.39 2.39 0 012.38 2.39"/></svg>