<svg data-icon-name="networkPeeringIcon" viewBox="0 0 24 24" width="24" height="24"><path d="M18.3 13.157a1.157 1.157 0 110-2.314 1.157 1.157 0 010 2.314m-6.3 6.3a1.157 1.157 0 110-2.314 1.157 1.157 0 010 2.314m0-12.6a1.157 1.157 0 110-2.314 1.157 1.157 0 010 2.314M4.543 12a1.157 1.157 0 112.314 0 1.157 1.157 0 01-2.314 0M18.3 9.3c-.435 0-.839.112-1.203.295l-2.692-2.692c.183-.364.295-.769.295-1.203a2.7 2.7 0 00-5.4 0c0 .44.115.847.3 1.213L6.883 9.584A2.7 2.7 0 005.7 9.3a2.7 2.7 0 000 5.4 2.7 2.7 0 001.162-.272l1.373 1.373 1.036-1.05-1.269-1.358A2.67 2.67 0 008.4 12c0-.497-.144-.956-.377-1.356l2.621-2.622c.4.234.859.378 1.356.378.502 0 .966-.146 1.368-.384l2.6 2.645a2.67 2.67 0 00-.368 1.34c0 .493.142.95.374 1.347L13.36 15.98A2.67 2.67 0 0012 15.6a2.7 2.7 0 102.7 2.7c0-.428-.108-.826-.285-1.186l2.699-2.699c.36.177.759.285 1.186.285a2.7 2.7 0 000-5.4"/></svg>