<svg data-icon-name="dataprocSectionIcon" viewBox="0 0 24 24" width="24" height="24" fill="currentColor" fill-rule="evenodd"><path d="M11.095 10.187a4.1 4.1 0 01-1.67-.365l1.36.785c1.284.46 2.93.208 3.648-.328l-1.218-.71c-.62.38-1.34.61-2.12.61z" opacity=".4"/><path d="M14.64 4.05A4.11 4.11 0 0011.093 2C10 2 8.973 2.427 8.2 3.2A4.07 4.07 0 007 6.095l.003 7.088c.8.363 1.765 1.203 1.996 2.36v-5.94a4.1 4.1 0 002.09.583 4.098 4.098 0 003.55-6.136zm-3.545 4.03a1.985 1.985 0 01-1.407-3.39 1.98 1.98 0 011.406-.582 1.983 1.983 0 011.988 1.987 1.99 1.99 0 01-1.986 1.988z"/><path d="M8.637 15.326c.153.266.36.82.363.826v-.61c-.232-1.157-1.2-1.998-2-2.36v.58a4.06 4.06 0 011.637 1.564" opacity=".4"/><path d="M13.276 17.373c-.104-.907.453-2.36 1.157-3.1L9 17.413v-1.26s-.21-.56-.363-.828A4.07 4.07 0 006.15 13.42a4.07 4.07 0 00-3.106.41 4.1 4.1 0 00-1.497 5.59v.002A4.1 4.1 0 007.14 20.92l6.137-3.548zm-7.19 1.722a1.99 1.99 0 01-2.714-.726v-.01a1.99 1.99 0 012.234-2.92 1.99 1.99 0 01.48 3.64z" opacity=".95"/><path d="M14.362 14.964a4.05 4.05 0 011.42-1.43l.002-.044-1.35.782c-.705.74-1.262 2.194-1.158 3.1l.544-.313a4.1 4.1 0 01.542-2.1z" opacity=".4"/><path d="M21.453 14.96a4.1 4.1 0 00-1.5-1.496l-5.52-3.185c-.718.53-2.364.78-3.647.32l5.032 2.9c-.594.35-1.1.84-1.456 1.45a4.09 4.09 0 001.5 5.59 4.1 4.1 0 003.107.41 4.07 4.07 0 002.48-1.91 4.11 4.11 0 000-4.1zm-1.823 3.043c-.265.46-.694.79-1.207.926a1.984 1.984 0 01-2.237-2.92A1.99 1.99 0 0119.63 16a2 2 0 010 1.99z" opacity=".9"/></svg>