<svg data-icon-name="agentPlatformSectionIcon" viewBox="0 0 32 32" width="32" height="32" fill="none"><path fill="var(--cm-sys-color-logo-blue-deep-tone, #3367d6)" d="M16 29.333a.57.57 0 01-.366-.133.7.7 0 01-.234-.333 16.5 16.5 0 00-1.7-4.2 17.3 17.3 0 00-2.766-3.6 17.3 17.3 0 00-3.6-2.767 16.5 16.5 0 00-4.2-1.7.7.7 0 01-.334-.233.574.574 0 010-.734.7.7 0 01.334-.233 16.5 16.5 0 004.2-1.7 17.3 17.3 0 003.6-2.767 17.3 17.3 0 002.766-3.6 16.5 16.5 0 001.7-4.2.7.7 0 01.234-.333.57.57 0 01.366-.133q.2 0 .361.133a.7.7 0 01.228.333 16.8 16.8 0 001.711 4.2 17.3 17.3 0 002.767 3.6 17.3 17.3 0 003.6 2.767 16.5 16.5 0 004.2 1.7.7.7 0 01.333.233.574.574 0 010 .734.7.7 0 01-.333.233 16.5 16.5 0 00-4.2 1.7 17.3 17.3 0 00-3.6 2.767 17.3 17.3 0 00-2.767 3.6 16.5 16.5 0 00-1.7 4.2.7.7 0 01-.233.333.57.57 0 01-.367.133"/></svg>