<svg data-icon-name="carbonIcon" viewBox="0 0 18 18" width="18" height="18"><path fill="currentColor" d="M3.534 2.693c1.71.328 4.707 1.312 7.038 4.218 2.422 3.013 1.955 5.453 1.579 6.475a6 6 0 01-.56.03c-1.387 0-3.465-.533-5.496-3.065a11.53 11.53 0 01-2.56-7.658zM2.185 1S.943 6.37 4.891 11.296c2.461 3.067 5.075 3.646 6.7 3.646.99 0 1.61-.213 1.61-.213s2.507-3.86-1.433-8.771S2.185 1 2.185 1"/><path fill="currentColor" d="M12.958 14.48 2.206 1l2.098 7.24 4.999 5.926z"/><path fill="currentColor" d="M14.995 16.83a.8.8 0 01-1.1-.107l-2.223-2.735 1.354-.795 2.07 2.575c.268.336.23.802-.1 1.061z"/></svg>